<svg width="351" height="128" viewBox="0 0 351 128" fill="none" xmlns="http://www.w3.org/2000/svg">
<path d="M64.3133 112.326L60.5373 119.606V123.494H58.2973V119.606L54.5053 112.326H57.0333L59.4333 117.43L61.8173 112.326H64.3133ZM67.8452 114.134V116.934H71.6052V118.71H67.8452V121.67H72.0852V123.494H65.6052V112.31H72.0852V114.134H67.8452ZM81.7208 112.326V114.134H78.7448V123.494H76.5048V114.134H73.5288V112.326H81.7208ZM94.0157 121.366H89.5677L88.8317 123.494H86.4797L90.4957 112.31H93.1037L97.1197 123.494H94.7517L94.0157 121.366ZM93.4077 119.574L91.7917 114.902L90.1757 119.574H93.4077ZM108.173 123.494H105.933L100.861 115.83V123.494H98.6208V112.31H100.861L105.933 119.99V112.31H108.173V123.494ZM115.57 123.606C114.525 123.606 113.565 123.361 112.69 122.87C111.816 122.38 111.122 121.702 110.61 120.838C110.098 119.964 109.842 118.977 109.842 117.878C109.842 116.79 110.098 115.814 110.61 114.95C111.122 114.076 111.816 113.393 112.69 112.902C113.565 112.412 114.525 112.166 115.57 112.166C116.626 112.166 117.586 112.412 118.45 112.902C119.325 113.393 120.013 114.076 120.514 114.95C121.026 115.814 121.282 116.79 121.282 117.878C121.282 118.977 121.026 119.964 120.514 120.838C120.013 121.702 119.325 122.38 118.45 122.87C117.576 123.361 116.616 123.606 115.57 123.606ZM115.57 121.606C116.242 121.606 116.834 121.457 117.346 121.158C117.858 120.849 118.258 120.412 118.546 119.846C118.834 119.281 118.978 118.625 118.978 117.878C118.978 117.132 118.834 116.481 118.546 115.926C118.258 115.361 117.858 114.929 117.346 114.63C116.834 114.332 116.242 114.182 115.57 114.182C114.898 114.182 114.301 114.332 113.778 114.63C113.266 114.929 112.866 115.361 112.578 115.926C112.29 116.481 112.146 117.132 112.146 117.878C112.146 118.625 112.29 119.281 112.578 119.846C112.866 120.412 113.266 120.849 113.778 121.158C114.301 121.457 114.898 121.606 115.57 121.606ZM130.549 112.326V114.134H127.573V123.494H125.333V114.134H122.357V112.326H130.549ZM141.447 112.326V123.494H139.207V118.742H134.423V123.494H132.183V112.326H134.423V116.918H139.207V112.326H141.447ZM145.892 114.134V116.934H149.652V118.71H145.892V121.67H150.132V123.494H143.652V112.31H150.132V114.134H145.892ZM157.928 123.494L155.464 119.142H154.408V123.494H152.168V112.326H156.36C157.224 112.326 157.96 112.481 158.568 112.79C159.176 113.089 159.629 113.5 159.928 114.022C160.237 114.534 160.392 115.11 160.392 115.75C160.392 116.486 160.178 117.153 159.752 117.75C159.325 118.337 158.69 118.742 157.848 118.966L160.52 123.494H157.928ZM154.408 117.462H156.28C156.888 117.462 157.341 117.318 157.64 117.03C157.938 116.732 158.088 116.321 158.088 115.798C158.088 115.286 157.938 114.892 157.64 114.614C157.341 114.326 156.888 114.182 156.28 114.182H154.408V117.462ZM168.47 114.134V116.934H172.23V118.71H168.47V121.67H172.71V123.494H166.23V112.31H172.71V114.134H168.47ZM181.434 123.494L179.018 119.734L176.826 123.494H174.298L177.818 117.862L174.25 112.326H176.826L179.242 116.07L181.418 112.326H183.946L180.442 117.942L184.01 123.494H181.434ZM193.859 115.782C193.859 116.38 193.715 116.94 193.427 117.462C193.149 117.985 192.707 118.406 192.099 118.726C191.501 119.046 190.744 119.206 189.827 119.206H187.955V123.494H185.715V112.326H189.827C190.691 112.326 191.427 112.476 192.035 112.774C192.643 113.073 193.096 113.484 193.395 114.006C193.704 114.529 193.859 115.121 193.859 115.782ZM189.731 117.398C190.349 117.398 190.808 117.26 191.107 116.982C191.405 116.694 191.555 116.294 191.555 115.782C191.555 114.694 190.947 114.15 189.731 114.15H187.955V117.398H189.731ZM197.689 114.134V116.934H201.449V118.71H197.689V121.67H201.929V123.494H195.449V112.31H201.929V114.134H197.689ZM213.517 123.494H211.277L206.205 115.83V123.494H203.965V112.31H206.205L211.277 119.99V112.31H213.517V123.494ZM219.586 123.606C218.808 123.606 218.104 123.473 217.474 123.206C216.856 122.94 216.365 122.556 216.002 122.054C215.64 121.553 215.453 120.961 215.442 120.278H217.842C217.874 120.737 218.034 121.1 218.322 121.366C218.621 121.633 219.026 121.766 219.538 121.766C220.061 121.766 220.472 121.644 220.77 121.398C221.069 121.142 221.218 120.812 221.218 120.406C221.218 120.076 221.117 119.804 220.914 119.59C220.712 119.377 220.456 119.212 220.146 119.094C219.848 118.966 219.432 118.828 218.898 118.678C218.173 118.465 217.581 118.257 217.122 118.054C216.674 117.841 216.285 117.526 215.954 117.11C215.634 116.684 215.474 116.118 215.474 115.414C215.474 114.753 215.64 114.177 215.97 113.686C216.301 113.196 216.765 112.822 217.362 112.566C217.96 112.3 218.642 112.166 219.41 112.166C220.562 112.166 221.496 112.449 222.21 113.014C222.936 113.569 223.336 114.348 223.41 115.35H220.946C220.925 114.966 220.76 114.652 220.45 114.406C220.152 114.15 219.752 114.022 219.25 114.022C218.813 114.022 218.461 114.134 218.194 114.358C217.938 114.582 217.81 114.908 217.81 115.334C217.81 115.633 217.906 115.884 218.098 116.086C218.301 116.278 218.546 116.438 218.834 116.566C219.133 116.684 219.549 116.822 220.082 116.982C220.808 117.196 221.4 117.409 221.858 117.622C222.317 117.836 222.712 118.156 223.042 118.582C223.373 119.009 223.538 119.569 223.538 120.262C223.538 120.86 223.384 121.414 223.074 121.926C222.765 122.438 222.312 122.849 221.714 123.158C221.117 123.457 220.408 123.606 219.586 123.606ZM227.72 114.134V116.934H231.48V118.71H227.72V121.67H231.96V123.494H225.48V112.31H231.96V114.134H227.72ZM245.408 112.326V114.134H242.432V123.494H240.192V114.134H237.216V112.326H245.408ZM252.803 123.494L250.339 119.142H249.283V123.494H247.043V112.326H251.235C252.099 112.326 252.835 112.481 253.443 112.79C254.051 113.089 254.504 113.5 254.803 114.022C255.112 114.534 255.267 115.11 255.267 115.75C255.267 116.486 255.053 117.153 254.627 117.75C254.2 118.337 253.565 118.742 252.723 118.966L255.395 123.494H252.803ZM249.283 117.462H251.155C251.763 117.462 252.216 117.318 252.515 117.03C252.813 116.732 252.963 116.321 252.963 115.798C252.963 115.286 252.813 114.892 252.515 114.614C252.216 114.326 251.763 114.182 251.155 114.182H249.283V117.462ZM264.141 121.366H259.693L258.957 123.494H256.605L260.621 112.31H263.229L267.245 123.494H264.877L264.141 121.366ZM263.533 119.574L261.917 114.902L260.301 119.574H263.533ZM268.202 117.894C268.202 116.796 268.447 115.814 268.938 114.95C269.439 114.076 270.117 113.398 270.97 112.918C271.834 112.428 272.799 112.182 273.866 112.182C275.114 112.182 276.207 112.502 277.146 113.142C278.085 113.782 278.741 114.668 279.114 115.798H276.538C276.282 115.265 275.919 114.865 275.45 114.598C274.991 114.332 274.458 114.198 273.85 114.198C273.199 114.198 272.618 114.353 272.106 114.662C271.605 114.961 271.21 115.388 270.922 115.942C270.645 116.497 270.506 117.148 270.506 117.894C270.506 118.63 270.645 119.281 270.922 119.846C271.21 120.401 271.605 120.833 272.106 121.142C272.618 121.441 273.199 121.59 273.85 121.59C274.458 121.59 274.991 121.457 275.45 121.19C275.919 120.913 276.282 120.508 276.538 119.974H279.114C278.741 121.116 278.085 122.006 277.146 122.646C276.218 123.276 275.125 123.59 273.866 123.59C272.799 123.59 271.834 123.35 270.97 122.87C270.117 122.38 269.439 121.702 268.938 120.838C268.447 119.974 268.202 118.993 268.202 117.894ZM287.331 123.494L283.267 118.518V123.494H281.027V112.326H283.267V117.334L287.331 112.326H290.035L285.427 117.862L290.163 123.494H287.331ZM293.876 114.134V116.934H297.636V118.71H293.876V121.67H298.116V123.494H291.636V112.31H298.116V114.134H293.876ZM305.912 123.494L303.448 119.142H302.392V123.494H300.152V112.326H304.344C305.208 112.326 305.944 112.481 306.552 112.79C307.16 113.089 307.613 113.5 307.912 114.022C308.221 114.534 308.376 115.11 308.376 115.75C308.376 116.486 308.163 117.153 307.736 117.75C307.309 118.337 306.675 118.742 305.832 118.966L308.504 123.494H305.912ZM302.392 117.462H304.264C304.872 117.462 305.325 117.318 305.624 117.03C305.923 116.732 306.072 116.321 306.072 115.798C306.072 115.286 305.923 114.892 305.624 114.614C305.325 114.326 304.872 114.182 304.264 114.182H302.392V117.462Z" fill="#F2F1F9"/>
<path d="M63.1077 4.5768C75.1282 4.5768 69.118 15.0948 66.1129 21.1051H67.6154C73.6256 10.5871 78.1334 4.5768 90.1539 4.5768V3.07425H78.1334H63.1077V4.5768ZM25.5436 7.58191C24.518 5.80124 25.5436 4.5768 28.5487 4.5768V3.07425H0V4.5768C3.00511 4.5768 6.0103 6.07935 7.51285 7.58191C15.0256 19.6024 31.5539 45.1461 31.5539 58.6692V90.2229C31.5539 93.2281 30.0513 94.7307 27.0461 94.7307V96.2333H55.5949V94.7307C52.5898 94.7307 49.5846 93.2281 49.5846 90.2229V58.6692C49.5846 55.664 49.5606 52.2862 49.5606 49.2811L25.5436 7.58191Z" fill="#F2F1F9"/>
<path d="M144.21 53.3801C128.373 47.7906 118.126 46.859 89.2463 55.2433C121.852 50.5853 141.415 60.8328 151.663 72.9435L152.594 75.7383C153.88 79.5951 155.948 85.0542 158.184 91.0163C158.652 92.2653 158.463 92.9727 157.252 93.8111C156.041 94.5564 155.948 94.8359 154.458 94.7427V95.6743H182.405V94.7427C179.611 94.7427 176.816 91.5753 175.884 88.7805L144.21 3.07425H126.51C132.099 19.8429 138.621 36.6115 144.21 53.3801ZM118.126 94.7427C114.399 94.7427 112.077 93.2462 110.673 91.0163C109.089 88.5011 108.81 82.2594 110.673 78.533H109.741C107.878 83.191 105.642 85.7994 102.289 88.7805C99.3345 91.4064 95.7675 94.7427 91.1095 94.7427V95.6743H118.126V94.7427Z" fill="#F2F1F9"/>
<path d="M262.171 73.6613C260.974 85.9443 250.605 95.2761 238.322 95.2761H223.009C220.536 95.2761 218.542 93.2822 218.542 90.8096V60.3415V54.7584C218.542 53.0834 219.898 51.6478 221.653 51.6478H232.181C237.844 51.6478 242.231 56.4333 241.752 62.0164H242.709L244.464 39.5243H243.587C243.108 45.8253 237.764 50.7704 231.383 50.7704H218.542V29.7503V4.14749H244.783C253.796 5.10464 260.496 13.24 259.618 22.4922H260.496L262.729 0H261.852C261.692 1.75474 260.177 3.11064 258.422 3.11064H202.83H195.97H195.572C191.105 3.11064 187.436 6.77958 187.436 11.246C187.436 15.7126 191.105 19.3815 195.572 19.3815H195.731H195.811H195.97C200.517 19.3815 204.106 15.7126 204.106 11.246C204.106 8.13548 202.431 5.50339 199.958 4.14749H202.431H202.83H218.462L200.517 26.8789V29.7503V60.3415V90.8096C200.517 93.2822 198.523 95.2761 195.97 95.2761V96.2333H260.815L263.128 73.6613H262.171Z" fill="#F2F1F9"/>
<path d="M271.652 3.07425L273.908 26.2834H274.875C273.586 14.3565 282.934 4.04134 294.861 4.04134H301.952V90.4309C301.952 93.0097 299.696 95.2662 297.117 95.2662V96.2333H325.162V95.2662C322.583 95.2662 320.649 93.0097 320.649 90.4309V4.04134H327.418C339.345 4.04134 348.693 14.3565 347.404 26.2834H348.371V24.994L348.693 21.7706L350.627 3.07425H271.652Z" fill="#F2F1F9"/>
</svg>
