<svg width="176" height="49" viewBox="0 0 176 49" fill="none" xmlns="http://www.w3.org/2000/svg">
<path d="M31.6774 2.29737C37.7112 2.29737 34.6943 7.57694 33.1858 10.5939H33.9401C36.9569 5.31428 39.2196 2.29737 45.2534 2.29737V1.54315H39.2196H31.6774V2.29737ZM12.8218 3.80581C12.307 2.91198 12.8218 2.29737 14.3302 2.29737V1.54315H0V2.29737C1.50844 2.29737 3.01691 3.05158 3.77113 3.80581C7.54222 9.83959 15.8387 22.6614 15.8387 29.4494V45.2881C15.8387 46.7966 15.0845 47.5508 13.576 47.5508V48.305H27.9063V47.5508C26.3978 47.5508 24.8894 46.7966 24.8894 45.2881V29.4494C24.8894 27.941 24.8773 26.2455 24.8773 24.737L12.8218 3.80581Z" fill="#F2F1F9"/>
<path d="M72.3873 26.7946C64.4378 23.9888 59.294 23.5212 44.7979 27.7298C61.1645 25.3917 70.9845 30.5355 76.1283 36.6145L76.5959 38.0174C77.2412 39.9534 78.2793 42.6936 79.4016 45.6863C79.6367 46.3132 79.5419 46.6683 78.934 47.0892C78.3261 47.4633 78.2793 47.6036 77.5312 47.5568V48.0244H91.5597V47.5568C90.1568 47.5568 88.754 45.9669 88.2864 44.5641L72.3873 1.54315H63.5026C66.3083 9.96029 69.5816 18.3774 72.3873 26.7946ZM59.294 47.5568C57.4236 47.5568 56.2578 46.8056 55.5531 45.6863C54.7581 44.4238 54.6178 41.2907 55.5531 39.4203H55.0855C54.1502 41.7584 53.0279 43.0677 51.3445 44.5641C49.8617 45.8821 48.0712 47.5568 45.7331 47.5568V48.0244H59.294V47.5568Z" fill="#F2F1F9"/>
<path d="M131.599 36.9748C130.998 43.1404 125.793 47.8246 119.628 47.8246H111.941C110.7 47.8246 109.699 46.8237 109.699 45.5826V30.2889V27.4864C109.699 26.6456 110.38 25.925 111.26 25.925H116.545C119.388 25.925 121.59 28.3271 121.349 31.1296H121.83L122.711 19.8395H122.27C122.03 23.0024 119.348 25.4846 116.145 25.4846H109.699V14.9334V2.08186H122.871C127.395 2.56231 130.758 6.64594 130.317 11.2901H130.758L131.879 0H131.438C131.358 0.880805 130.598 1.56141 129.717 1.56141H101.812H98.3688H98.1686C95.9266 1.56141 94.085 3.40306 94.085 5.64503C94.085 7.88704 95.9266 9.72871 98.1686 9.72871H98.2487H98.2887H98.3688C100.651 9.72871 102.452 7.88704 102.452 5.64503C102.452 4.08367 101.612 2.76247 100.371 2.08186H101.612H101.812H109.659L100.651 13.4921V14.9334V30.2889V45.5826C100.651 46.8237 99.6499 47.8246 98.3688 47.8246V48.305H130.918L132.079 36.9748H131.599Z" fill="#F2F1F9"/>
<path d="M136.358 1.54315L137.49 13.1932H137.976C137.329 7.20636 142.021 2.02859 148.008 2.02859H151.567V45.3925C151.567 46.6869 150.435 47.8196 149.14 47.8196V48.305H163.217V47.8196C161.923 47.8196 160.952 46.6869 160.952 45.3925V2.02859H164.35C170.337 2.02859 175.029 7.20637 174.382 13.1932H174.867V12.5459L175.029 10.9279L176 1.54315H136.358Z" fill="#F2F1F9"/>
</svg>
