<svg width="267" height="44" viewBox="0 0 267 44" fill="none" xmlns="http://www.w3.org/2000/svg">
<rect width="267" height="44" rx="15" fill="#3629B7"/>
<path d="M110.927 28.112C110.18 28.112 109.508 27.984 108.911 27.728C108.313 27.4613 107.844 27.088 107.503 26.608C107.161 26.128 106.991 25.568 106.991 24.928H108.943C108.985 25.408 109.172 25.8027 109.503 26.112C109.844 26.4213 110.319 26.576 110.927 26.576C111.556 26.576 112.047 26.4267 112.399 26.128C112.751 25.8187 112.927 25.424 112.927 24.944C112.927 24.5707 112.815 24.2667 112.591 24.032C112.377 23.7973 112.105 23.616 111.775 23.488C111.455 23.36 111.007 23.2213 110.431 23.072C109.705 22.88 109.113 22.688 108.655 22.496C108.207 22.2933 107.823 21.984 107.503 21.568C107.183 21.152 107.023 20.5973 107.023 19.904C107.023 19.264 107.183 18.704 107.503 18.224C107.823 17.744 108.271 17.376 108.847 17.12C109.423 16.864 110.089 16.736 110.847 16.736C111.924 16.736 112.804 17.008 113.487 17.552C114.18 18.0853 114.564 18.8213 114.639 19.76H112.623C112.591 19.3547 112.399 19.008 112.047 18.72C111.695 18.432 111.231 18.288 110.655 18.288C110.132 18.288 109.705 18.4213 109.375 18.688C109.044 18.9547 108.879 19.3387 108.879 19.84C108.879 20.1813 108.98 20.464 109.183 20.688C109.396 20.9013 109.663 21.072 109.983 21.2C110.303 21.328 110.74 21.4667 111.295 21.616C112.031 21.8187 112.628 22.0213 113.087 22.224C113.556 22.4267 113.951 22.7413 114.271 23.168C114.601 23.584 114.767 24.144 114.767 24.848C114.767 25.4133 114.612 25.9467 114.303 26.448C114.004 26.9493 113.561 27.3547 112.975 27.664C112.399 27.9627 111.716 28.112 110.927 28.112ZM117.847 18.016C117.516 18.016 117.239 17.904 117.015 17.68C116.791 17.456 116.679 17.1787 116.679 16.848C116.679 16.5173 116.791 16.24 117.015 16.016C117.239 15.792 117.516 15.68 117.847 15.68C118.167 15.68 118.439 15.792 118.663 16.016C118.887 16.24 118.999 16.5173 118.999 16.848C118.999 17.1787 118.887 17.456 118.663 17.68C118.439 17.904 118.167 18.016 117.847 18.016ZM118.743 19.184V28H116.919V19.184H118.743ZM124.69 19.04C125.372 19.04 125.975 19.1787 126.498 19.456C127.031 19.7227 127.447 20.0587 127.746 20.464V19.184H129.586V28.144C129.586 28.9547 129.415 29.6747 129.074 30.304C128.732 30.944 128.236 31.4453 127.586 31.808C126.946 32.1707 126.178 32.352 125.282 32.352C124.087 32.352 123.095 32.0693 122.306 31.504C121.516 30.9493 121.068 30.192 120.962 29.232H122.77C122.908 29.6907 123.202 30.0587 123.65 30.336C124.108 30.624 124.652 30.768 125.282 30.768C126.018 30.768 126.61 30.544 127.058 30.096C127.516 29.648 127.746 28.9973 127.746 28.144V26.672C127.436 27.088 127.015 27.44 126.482 27.728C125.959 28.0053 125.362 28.144 124.69 28.144C123.922 28.144 123.218 27.952 122.578 27.568C121.948 27.1733 121.447 26.6293 121.074 25.936C120.711 25.232 120.53 24.4373 120.53 23.552C120.53 22.6667 120.711 21.8827 121.074 21.2C121.447 20.5173 121.948 19.9893 122.578 19.616C123.218 19.232 123.922 19.04 124.69 19.04ZM127.746 23.584C127.746 22.976 127.618 22.448 127.362 22C127.116 21.552 126.791 21.2107 126.386 20.976C125.98 20.7413 125.543 20.624 125.074 20.624C124.604 20.624 124.167 20.7413 123.762 20.976C123.356 21.2 123.026 21.536 122.77 21.984C122.524 22.4213 122.402 22.944 122.402 23.552C122.402 24.16 122.524 24.6933 122.77 25.152C123.026 25.6107 123.356 25.9627 123.762 26.208C124.178 26.4427 124.615 26.56 125.074 26.56C125.543 26.56 125.98 26.4427 126.386 26.208C126.791 25.9733 127.116 25.632 127.362 25.184C127.618 24.7253 127.746 24.192 127.746 23.584ZM136.429 19.04C137.123 19.04 137.741 19.184 138.285 19.472C138.84 19.76 139.272 20.1867 139.581 20.752C139.891 21.3173 140.045 22 140.045 22.8V28H138.237V23.072C138.237 22.2827 138.04 21.68 137.645 21.264C137.251 20.8373 136.712 20.624 136.029 20.624C135.347 20.624 134.803 20.8373 134.397 21.264C134.003 21.68 133.805 22.2827 133.805 23.072V28H131.981V19.184H133.805V20.192C134.104 19.8293 134.483 19.5467 134.941 19.344C135.411 19.1413 135.907 19.04 136.429 19.04ZM147.456 18.016C147.125 18.016 146.848 17.904 146.624 17.68C146.4 17.456 146.288 17.1787 146.288 16.848C146.288 16.5173 146.4 16.24 146.624 16.016C146.848 15.792 147.125 15.68 147.456 15.68C147.776 15.68 148.048 15.792 148.272 16.016C148.496 16.24 148.608 16.5173 148.608 16.848C148.608 17.1787 148.496 17.456 148.272 17.68C148.048 17.904 147.776 18.016 147.456 18.016ZM148.352 19.184V28H146.528V19.184H148.352ZM155.195 19.04C155.888 19.04 156.507 19.184 157.051 19.472C157.606 19.76 158.038 20.1867 158.347 20.752C158.656 21.3173 158.811 22 158.811 22.8V28H157.003V23.072C157.003 22.2827 156.806 21.68 156.411 21.264C156.016 20.8373 155.478 20.624 154.795 20.624C154.112 20.624 153.568 20.8373 153.163 21.264C152.768 21.68 152.571 22.2827 152.571 23.072V28H150.747V19.184H152.571V20.192C152.87 19.8293 153.248 19.5467 153.707 19.344C154.176 19.1413 154.672 19.04 155.195 19.04Z" fill="white"/>
</svg>
